<svg width="80" height="80" viewBox="0 0 80 80" fill="none" xmlns="http://www.w3.org/2000/svg">
<path d="M70 38.7891C71.5625 39.8568 72.9557 41.0677 74.1797 42.4219C75.4036 43.776 76.4583 45.2604 77.3438 46.875C78.2292 48.4896 78.8802 50.1953 79.2969 51.9922C79.7135 53.7891 79.9479 55.625 80 57.5C80 60.599 79.4141 63.5156 78.2422 66.25C77.0703 68.9844 75.4557 71.3672 73.3984 73.3984C71.3411 75.4297 68.9583 77.0312 66.25 78.2031C63.5417 79.375 60.625 79.974 57.5 80C55.1302 80 52.8385 79.6484 50.625 78.9453C48.4115 78.2422 46.3802 77.2266 44.5312 75.8984C42.6823 74.5703 41.0417 72.9818 39.6094 71.1328C38.1771 69.2839 37.0703 67.2396 36.2891 65H5V5H15V0H20V5H55V0H60V5H70V38.7891ZM10 10V20H65V10H60V15H55V10H20V15H15V10H10ZM35.1172 60C35.0391 59.1927 35 58.3594 35 57.5C35 54.401 35.5859 51.4844 36.7578 48.75C37.9297 46.0156 39.5443 43.6328 41.6016 41.6016C43.6589 39.5703 46.0417 37.9688 48.75 36.7969C51.4583 35.625 54.375 35.026 57.5 35C60.1042 35 62.6042 35.4297 65 36.2891V25H10V60H35.1172ZM57.5 75C59.9219 75 62.1875 74.5443 64.2969 73.6328C66.4062 72.7214 68.2552 71.4714 69.8438 69.8828C71.4323 68.2943 72.6823 66.4453 73.5938 64.3359C74.5052 62.2266 74.974 59.9479 75 57.5C75 55.0781 74.5443 52.8125 73.6328 50.7031C72.7214 48.5938 71.4714 46.7448 69.8828 45.1562C68.2943 43.5677 66.4453 42.3177 64.3359 41.4062C62.2266 40.4948 59.9479 40.026 57.5 40C55.0781 40 52.8125 40.4557 50.7031 41.3672C48.5938 42.2786 46.7448 43.5286 45.1562 45.1172C43.5677 46.7057 42.3177 48.5547 41.4062 50.6641C40.4948 52.7734 40.026 55.0521 40 57.5C40 59.9219 40.4557 62.1875 41.3672 64.2969C42.2786 66.4062 43.5286 68.2552 45.1172 69.8438C46.7057 71.4323 48.5547 72.6823 50.6641 73.5938C52.7734 74.5052 55.0521 74.974 57.5 75ZM60 55H67.5V60H55V45H60V55Z" fill="black"/>
</svg>
