<svg width="270" height="60" viewBox="0 0 270 60" fill="none" xmlns="http://www.w3.org/2000/svg">
<path d="M102.3 47.6504V48.3271C102.414 48.1015 102.584 47.8759 102.811 47.7632C103.038 47.6504 103.322 47.5376 103.606 47.5376C103.89 47.5376 104.117 47.5376 104.287 47.7068C104.514 47.8195 104.628 47.9323 104.798 48.1015C104.912 48.2707 105.025 48.4962 105.082 48.7218C105.139 48.9474 105.196 49.1729 105.196 49.4549C105.196 49.7368 105.196 49.9624 105.082 50.188C105.025 50.4135 104.912 50.6391 104.798 50.8083C104.685 50.9774 104.514 51.0902 104.287 51.203C104.06 51.3158 103.833 51.3722 103.606 51.3722C103.379 51.3722 103.322 51.3722 103.209 51.3722C103.095 51.3722 102.982 51.3158 102.868 51.203C102.754 51.1466 102.641 51.0338 102.584 50.9774C102.527 50.8647 102.414 50.7519 102.414 50.6391V52.6128H101.96V47.7632H102.357L102.3 47.6504ZM104.685 48.891C104.685 48.7218 104.571 48.5526 104.458 48.3835C104.344 48.2143 104.23 48.1015 104.117 48.0451C103.947 47.9323 103.776 47.9323 103.606 47.9323C103.436 47.9323 103.152 47.9323 102.982 48.0451C102.811 48.1015 102.698 48.2143 102.584 48.3835C102.471 48.4962 102.414 48.6654 102.357 48.8346C102.357 49.0038 102.3 49.2293 102.3 49.3985C102.3 49.5677 102.3 49.7368 102.357 49.9624C102.357 50.1316 102.471 50.3008 102.584 50.4699C102.698 50.5827 102.811 50.7519 102.982 50.8083C103.152 50.9211 103.322 50.9211 103.549 50.9211C103.776 50.9211 103.947 50.9211 104.06 50.8083C104.23 50.6955 104.344 50.5827 104.401 50.4699C104.514 50.3008 104.571 50.188 104.628 49.9624C104.628 49.7932 104.685 49.6241 104.685 49.3985C104.685 49.1729 104.685 49.0602 104.628 48.8346" fill="#FCFCFC"/>
<path d="M106.161 50.0188C106.161 50.188 106.274 50.3571 106.388 50.4699C106.501 50.5827 106.615 50.6955 106.728 50.8083C106.899 50.921 107.069 50.921 107.239 50.921C107.58 50.921 107.807 50.8647 107.977 50.6955C108.148 50.5263 108.261 50.3007 108.375 50.0188H108.829C108.715 50.4135 108.545 50.7519 108.318 50.921C108.091 51.1466 107.75 51.2594 107.296 51.2594C106.842 51.2594 106.785 51.2594 106.558 51.0902C106.331 50.9774 106.161 50.8647 106.047 50.6955C105.934 50.5263 105.82 50.3007 105.763 50.0752C105.706 49.8496 105.65 49.6241 105.65 49.3421C105.65 49.0601 105.65 48.891 105.763 48.6654C105.82 48.4398 105.934 48.2707 106.047 48.0451C106.161 47.8759 106.331 47.7068 106.558 47.594C106.785 47.4812 107.012 47.4248 107.296 47.4248C107.58 47.4248 107.807 47.4812 108.034 47.594C108.261 47.7068 108.375 47.8759 108.545 48.0451C108.659 48.2143 108.772 48.4398 108.829 48.6654C108.886 48.891 108.886 49.1729 108.886 49.3985H106.161C106.161 49.5677 106.161 49.7368 106.217 49.906M108.318 48.7218C108.318 48.5526 108.204 48.4398 108.091 48.3271C107.977 48.2143 107.864 48.1015 107.75 48.0451C107.637 47.9887 107.466 47.9323 107.296 47.9323C107.126 47.9323 106.955 47.9323 106.842 48.0451C106.728 48.1015 106.558 48.2143 106.501 48.3271C106.388 48.4398 106.331 48.5526 106.274 48.7218C106.217 48.891 106.161 49.0038 106.161 49.1729H108.488C108.488 49.0038 108.488 48.8346 108.375 48.7218" fill="#FCFCFC"/>
<path d="M109.794 47.6504V48.4962C109.907 48.2143 110.078 47.9887 110.305 47.8196C110.532 47.6504 110.816 47.594 111.156 47.594V48.0451C110.986 48.0451 110.759 48.0451 110.645 48.1015C110.475 48.1579 110.362 48.2707 110.248 48.3835C110.135 48.4963 110.021 48.609 109.964 48.7782C109.907 48.9474 109.851 49.1166 109.851 49.2857V51.1466H109.397V47.594H109.794V47.6504Z" fill="#FCFCFC"/>
<path d="M112.235 48.0451V51.203H111.781V48.0451H111.156V47.7068H111.781V47.3684C111.781 47.1992 111.781 47.0865 111.781 46.9737C111.781 46.8609 111.838 46.7481 111.894 46.6353C111.951 46.5226 112.065 46.4662 112.178 46.4098C112.292 46.4098 112.405 46.3534 112.632 46.3534C112.86 46.3534 112.746 46.3534 112.803 46.3534C112.803 46.3534 112.916 46.3534 112.973 46.3534V46.7481C112.916 46.7481 112.86 46.7481 112.803 46.7481C112.803 46.7481 112.689 46.7481 112.632 46.7481C112.519 46.7481 112.405 46.7481 112.349 46.7481C112.292 46.7481 112.235 46.8609 112.235 46.9173C112.235 46.9737 112.235 47.0301 112.235 47.1429C112.235 47.1992 112.235 47.312 112.235 47.4248V47.7068H112.916V48.0451H112.235Z" fill="#FCFCFC"/>
<path d="M115.585 47.7068C115.812 47.8195 115.982 47.9323 116.095 48.1015C116.209 48.2707 116.323 48.4399 116.436 48.6654C116.493 48.891 116.55 49.1165 116.55 49.3985C116.55 49.6805 116.55 49.906 116.436 50.1316C116.379 50.3571 116.266 50.5263 116.095 50.6955C115.925 50.8647 115.755 50.9774 115.585 51.0902C115.357 51.203 115.13 51.2594 114.847 51.2594C114.563 51.2594 114.336 51.2594 114.109 51.0902C113.881 50.9774 113.711 50.8647 113.598 50.6955C113.484 50.5263 113.371 50.3571 113.257 50.1316C113.2 49.906 113.143 49.6805 113.143 49.3985C113.143 49.1165 113.143 48.891 113.257 48.6654C113.314 48.4399 113.427 48.2143 113.598 48.1015C113.768 47.9323 113.938 47.8195 114.109 47.7068C114.336 47.594 114.563 47.5376 114.847 47.5376C115.13 47.5376 115.357 47.5376 115.585 47.7068ZM114.336 48.0451C114.165 48.1579 114.052 48.2707 113.938 48.3835C113.825 48.5526 113.768 48.6654 113.711 48.891C113.711 49.0602 113.654 49.2293 113.654 49.4549C113.654 49.6805 113.654 49.8496 113.711 50.0188C113.711 50.188 113.825 50.3571 113.938 50.5263C114.052 50.6391 114.165 50.8083 114.336 50.8647C114.506 50.9774 114.676 50.9774 114.903 50.9774C115.13 50.9774 115.301 50.9774 115.471 50.8647C115.641 50.7519 115.755 50.6391 115.868 50.5263C115.982 50.4135 116.039 50.2444 116.095 50.0188C116.095 49.8496 116.152 49.6805 116.152 49.4549C116.152 49.2293 116.152 49.0602 116.095 48.891C116.095 48.7218 115.982 48.5526 115.868 48.3835C115.755 48.2143 115.641 48.1015 115.471 48.0451C115.301 47.9323 115.13 47.9323 114.903 47.9323C114.676 47.9323 114.506 47.9323 114.336 48.0451Z" fill="#FCFCFC"/>
<path d="M117.571 47.6504V48.4962C117.685 48.2143 117.855 47.9887 118.082 47.8196C118.309 47.6504 118.593 47.594 118.934 47.594V48.0451C118.764 48.0451 118.537 48.0451 118.423 48.1015C118.253 48.1579 118.139 48.2707 118.026 48.3835C117.912 48.4963 117.799 48.609 117.742 48.7782C117.685 48.9474 117.628 49.1166 117.628 49.2857V51.1466H117.174V47.594H117.571V47.6504Z" fill="#FCFCFC"/>
<path d="M119.729 47.6504V48.2707C119.842 48.0451 120.013 47.8759 120.183 47.7632C120.353 47.6504 120.58 47.594 120.921 47.594C121.262 47.594 121.375 47.6504 121.545 47.7632C121.716 47.8759 121.886 48.0451 121.943 48.2707C122.056 48.0451 122.227 47.8759 122.397 47.7632C122.624 47.6504 122.851 47.594 123.078 47.594C123.873 47.594 124.27 47.9887 124.27 48.8346V51.203H123.816V48.8346C123.816 48.5526 123.759 48.3271 123.646 48.1579C123.532 47.9887 123.305 47.9323 122.965 47.9323C122.624 47.9323 122.624 47.9323 122.51 48.0451C122.397 48.1015 122.283 48.2143 122.227 48.3271C122.17 48.4399 122.113 48.609 122.056 48.7218C122.056 48.891 122.056 49.0602 122.056 49.1729V51.1466H121.602V48.7782C121.602 48.6654 121.602 48.5526 121.602 48.4399C121.602 48.3271 121.545 48.2143 121.489 48.1579C121.489 48.1015 121.375 47.9887 121.262 47.9887C121.148 47.9887 121.034 47.9323 120.921 47.9323C120.807 47.9323 120.58 47.9323 120.467 48.0451C120.353 48.1015 120.24 48.2143 120.126 48.3271C120.069 48.4399 119.956 48.609 119.956 48.7218C119.956 48.891 119.899 49.0602 119.899 49.2293V51.203H119.445V47.6504H119.842H119.729Z" fill="#FCFCFC"/>
<path d="M125.519 47.0301H125.065V46.3534H125.519V47.0301ZM125.519 51.203H125.065V47.6504H125.519V51.203Z" fill="#FCFCFC"/>
<path d="M126.768 47.6504V48.2707C126.825 48.0451 126.995 47.8759 127.222 47.7632C127.45 47.6504 127.677 47.594 127.904 47.594C128.131 47.594 128.358 47.594 128.528 47.7068C128.698 47.7632 128.812 47.8759 128.926 47.9887C129.039 48.1015 129.096 48.2707 129.153 48.4399C129.153 48.609 129.209 48.7782 129.209 49.0038V51.2594H128.755V49.0602C128.755 48.891 128.755 48.7782 128.755 48.6654C128.755 48.5526 128.698 48.4399 128.585 48.3271C128.528 48.2143 128.415 48.1579 128.301 48.1015C128.188 48.1015 128.017 48.0451 127.847 48.0451C127.677 48.0451 127.506 48.0451 127.393 48.1579C127.279 48.2143 127.166 48.3271 127.052 48.3835C126.939 48.4963 126.882 48.609 126.825 48.7782C126.825 48.9474 126.768 49.0602 126.711 49.2857V51.3158H126.257V47.7632H126.711L126.768 47.6504Z" fill="#FCFCFC"/>
<path d="M132.956 51.5978C132.899 51.8233 132.786 51.9925 132.672 52.1053C132.559 52.2744 132.389 52.3872 132.161 52.4436C131.934 52.5 131.707 52.5564 131.423 52.5564C131.14 52.5564 131.083 52.5564 130.913 52.5C130.742 52.5 130.572 52.3872 130.458 52.3308C130.345 52.2181 130.231 52.1053 130.118 51.9925C130.004 51.8797 130.004 51.7105 129.947 51.485H130.402C130.402 51.5978 130.458 51.7105 130.515 51.8233C130.572 51.9361 130.685 51.9925 130.742 52.0489C130.856 52.0489 130.969 52.1617 131.083 52.1617C131.196 52.1617 131.31 52.1617 131.423 52.1617C131.821 52.1617 132.105 52.0489 132.275 51.8233C132.445 51.5978 132.559 51.2594 132.559 50.8647V50.4135C132.445 50.6391 132.332 50.8083 132.105 50.9211C131.934 51.0338 131.707 51.1466 131.423 51.1466C131.14 51.1466 130.913 51.1466 130.685 51.0338C130.458 50.9211 130.345 50.8083 130.174 50.6391C130.061 50.4699 129.947 50.3008 129.891 50.0752C129.834 49.8496 129.777 49.6241 129.777 49.3421C129.777 49.0602 129.777 48.891 129.891 48.6654C129.947 48.4399 130.061 48.2707 130.174 48.1015C130.288 47.9323 130.458 47.8196 130.685 47.7068C130.913 47.594 131.14 47.594 131.367 47.594C131.594 47.594 131.651 47.594 131.764 47.594C131.878 47.594 131.991 47.7068 132.105 47.7632C132.218 47.8196 132.275 47.9323 132.389 47.9887C132.445 48.1015 132.502 48.1579 132.559 48.2707V47.6504H133.013V50.8647C133.013 51.1466 133.013 51.3722 132.899 51.5414M131.991 50.6955C132.161 50.6391 132.275 50.5263 132.332 50.3572C132.445 50.2444 132.502 50.0752 132.559 49.906C132.559 49.7369 132.616 49.5677 132.616 49.3985C132.616 49.2293 132.616 49.0602 132.559 48.891C132.559 48.7218 132.445 48.5526 132.332 48.4399C132.218 48.2707 132.105 48.1579 131.991 48.1015C131.821 47.9887 131.651 47.9887 131.48 47.9887C131.31 47.9887 131.083 47.9887 130.969 48.1015C130.799 48.1579 130.685 48.2707 130.629 48.4399C130.515 48.5526 130.458 48.7218 130.402 48.891C130.402 49.0602 130.345 49.2293 130.345 49.4549C130.345 49.6805 130.345 49.7932 130.402 49.9624C130.402 50.1316 130.515 50.3008 130.629 50.4135C130.742 50.5263 130.856 50.6391 130.969 50.7519C131.14 50.8083 131.31 50.8647 131.48 50.8647C131.651 50.8647 131.821 50.8647 131.991 50.7519" fill="#FCFCFC"/>
<path d="M135.908 48.2143C135.965 48.0451 136.079 47.9323 136.192 47.8196C136.306 47.7068 136.476 47.6504 136.646 47.594C136.817 47.594 136.987 47.5376 137.214 47.5376C137.441 47.5376 137.498 47.5376 137.668 47.5376C137.839 47.5376 137.952 47.6504 138.066 47.7068C138.179 47.7632 138.293 47.8759 138.349 48.0451C138.406 48.2143 138.463 48.3835 138.463 48.609V50.4699C138.463 50.6391 138.52 50.7519 138.69 50.7519C138.86 50.7519 138.804 50.7519 138.804 50.7519V51.0902H138.69C138.69 51.0902 138.577 51.0902 138.52 51.0902C138.406 51.0902 138.293 51.0902 138.236 51.0902C138.179 51.0902 138.122 51.0338 138.066 50.9774C138.066 50.9774 138.009 50.8647 138.009 50.8083C138.009 50.7519 138.009 50.6391 138.009 50.5827C137.952 50.6955 137.839 50.8083 137.782 50.8647C137.725 50.9774 137.611 51.0338 137.498 51.0902C137.384 51.1466 137.271 51.203 137.157 51.203C137.044 51.203 136.873 51.203 136.703 51.203C136.533 51.203 136.362 51.203 136.249 51.1466C136.079 51.1466 135.965 51.0338 135.852 50.9774C135.738 50.9211 135.681 50.8083 135.624 50.6391C135.568 50.5263 135.511 50.3571 135.511 50.188C135.511 50.0188 135.511 49.7368 135.681 49.6241C135.795 49.5113 135.965 49.3985 136.135 49.2857C136.306 49.2293 136.533 49.1729 136.76 49.1165C136.987 49.1165 137.214 49.0602 137.441 49.0038C137.555 49.0038 137.611 49.0038 137.668 49.0038C137.725 49.0038 137.782 49.0038 137.839 48.9474C137.839 48.9474 137.895 48.891 137.952 48.8346C137.952 48.7782 137.952 48.7218 137.952 48.609C137.952 48.4398 137.952 48.3271 137.895 48.2707C137.895 48.1579 137.782 48.1015 137.668 48.0451C137.555 48.0451 137.498 47.9323 137.384 47.9323C137.271 47.9323 137.157 47.9323 137.044 47.9323C136.76 47.9323 136.533 47.9887 136.362 48.1015C136.192 48.2143 136.079 48.4399 136.079 48.7218H135.624C135.624 48.4962 135.681 48.3271 135.738 48.2143M138.066 49.2857C138.066 49.2857 138.009 49.3985 137.895 49.3985C137.839 49.3985 137.725 49.3985 137.668 49.3985C137.498 49.3985 137.271 49.4549 137.1 49.5113C136.93 49.5113 136.703 49.5677 136.59 49.6241C136.419 49.6241 136.306 49.7368 136.192 49.8496C136.079 49.9624 136.022 50.0752 136.022 50.2444C136.022 50.4135 136.022 50.4699 136.079 50.5263C136.079 50.5827 136.192 50.6955 136.249 50.7519C136.306 50.8083 136.419 50.8647 136.476 50.8647C136.59 50.8647 136.646 50.8647 136.76 50.8647C136.93 50.8647 137.1 50.8647 137.214 50.8083C137.384 50.8083 137.498 50.6955 137.611 50.5827C137.725 50.4699 137.839 50.3571 137.895 50.2444C137.952 50.1316 138.009 49.9624 138.009 49.7932V49.2293L138.066 49.2857Z" fill="#FCFCFC"/>
<path d="M139.769 47.6504V48.4962C139.882 48.2143 140.053 47.9887 140.28 47.8196C140.507 47.6504 140.791 47.594 141.131 47.594V48.0451C140.961 48.0451 140.734 48.0451 140.62 48.1015C140.45 48.1579 140.336 48.2707 140.223 48.3835C140.109 48.4963 139.996 48.609 139.939 48.7782C139.882 48.9474 139.826 49.1166 139.826 49.2857V51.1466H139.371V47.594H139.769V47.6504Z" fill="#FCFCFC"/>
<path d="M142.948 47.6504V47.9887H142.21V50.3571C142.21 50.5263 142.21 50.5827 142.267 50.6955C142.267 50.7519 142.38 50.8083 142.55 50.8083C142.664 50.8083 142.778 50.8083 142.948 50.8083V51.1466C142.891 51.1466 142.834 51.1466 142.778 51.1466C142.721 51.1466 142.664 51.1466 142.607 51.1466C142.323 51.1466 142.096 51.1466 141.983 50.9774C141.869 50.8647 141.812 50.6391 141.812 50.3571V47.9323H141.188V47.594H141.812V46.5226H142.267V47.594H143.005L142.948 47.6504Z" fill="#FCFCFC"/>
<path d="M145.616 48.3835C145.616 48.2707 145.503 48.2143 145.389 48.1579C145.275 48.1015 145.219 48.0451 145.105 48.0451C144.992 48.0451 144.878 48.0451 144.764 48.0451C144.651 48.0451 144.594 48.0451 144.481 48.0451C144.367 48.0451 144.31 48.0451 144.197 48.1579C144.14 48.1579 144.026 48.2707 143.97 48.3271C143.97 48.3835 143.913 48.4962 143.913 48.609C143.913 48.7218 143.913 48.7782 143.97 48.8346C143.97 48.891 144.083 48.9474 144.14 49.0038C144.197 49.0038 144.31 49.0601 144.367 49.1165C144.481 49.1165 144.537 49.1165 144.594 49.1729L145.162 49.2857C145.275 49.2857 145.389 49.2857 145.502 49.3985C145.616 49.3985 145.73 49.5113 145.843 49.5677C145.957 49.6241 146.013 49.7368 146.07 49.8496C146.127 49.9624 146.184 50.0752 146.184 50.2444C146.184 50.4135 146.184 50.5827 146.07 50.7519C145.957 50.8647 145.843 50.9774 145.73 51.0902C145.616 51.1466 145.446 51.2594 145.275 51.2594C145.105 51.2594 144.935 51.2594 144.764 51.2594C144.367 51.2594 144.026 51.1466 143.743 50.9774C143.459 50.8083 143.345 50.4699 143.288 50.0188H143.743C143.743 50.3007 143.856 50.5263 144.083 50.6955C144.254 50.8647 144.537 50.9211 144.821 50.9211C145.105 50.9211 145.048 50.9211 145.162 50.9211C145.275 50.9211 145.389 50.8647 145.502 50.8083C145.616 50.8083 145.673 50.6955 145.73 50.5827C145.786 50.5263 145.843 50.4135 145.843 50.2444C145.843 50.0752 145.843 50.0752 145.786 49.9624C145.786 49.906 145.673 49.8496 145.616 49.7932C145.559 49.7932 145.446 49.6804 145.389 49.6804C145.275 49.6804 145.219 49.6241 145.105 49.6241L144.537 49.5113C144.424 49.5113 144.254 49.4549 144.14 49.3985C144.026 49.3985 143.913 49.2857 143.799 49.2293C143.686 49.1729 143.629 49.0602 143.572 48.9474C143.572 48.8346 143.516 48.7218 143.516 48.5526C143.516 48.3835 143.516 48.2143 143.629 48.1015C143.686 47.9887 143.799 47.8759 143.97 47.8196C144.083 47.7632 144.254 47.7068 144.424 47.6504C144.594 47.6504 144.764 47.6504 144.878 47.6504C144.992 47.6504 145.219 47.6504 145.389 47.7068C145.559 47.7068 145.673 47.8195 145.786 47.9323C145.9 48.0451 146.013 48.1579 146.07 48.2707C146.127 48.3835 146.184 48.5526 146.184 48.7782H145.73C145.73 48.6654 145.73 48.5526 145.673 48.4398" fill="#FCFCFC"/>
<path d="M150.952 48.1579C150.782 47.9887 150.555 47.9323 150.271 47.9323C149.987 47.9323 149.874 47.9323 149.704 48.0451C149.533 48.1579 149.42 48.2707 149.306 48.3835C149.193 48.5526 149.136 48.6654 149.079 48.891C149.079 49.0602 149.022 49.2293 149.022 49.4549C149.022 49.6805 149.022 49.8496 149.079 50.0188C149.079 50.188 149.193 50.3572 149.306 50.5263C149.42 50.6391 149.533 50.8083 149.704 50.8647C149.874 50.9775 150.044 50.9775 150.271 50.9775C150.498 50.9775 150.555 50.9775 150.669 50.9211C150.782 50.9211 150.896 50.8083 151.009 50.6955C151.123 50.5827 151.18 50.5263 151.236 50.3572C151.293 50.2444 151.35 50.0752 151.35 49.9624H151.804C151.747 50.4135 151.577 50.7519 151.35 50.9775C151.066 51.203 150.782 51.3158 150.385 51.3158C149.987 51.3158 149.874 51.3158 149.647 51.1466C149.42 51.0338 149.249 50.9211 149.136 50.7519C149.022 50.5827 148.909 50.4135 148.795 50.188C148.738 49.9624 148.682 49.7368 148.682 49.4549C148.682 49.1729 148.682 48.9474 148.795 48.7218C148.852 48.4962 148.966 48.2707 149.136 48.1579C149.249 47.9887 149.476 47.8759 149.647 47.7632C149.874 47.6504 150.101 47.594 150.385 47.594C150.669 47.594 151.066 47.7068 151.35 47.8759C151.634 48.1015 151.747 48.3835 151.804 48.7782H151.35C151.293 48.4962 151.18 48.3271 151.009 48.1579" fill="#FCFCFC"/>
<path d="M154.586 47.7068C154.813 47.8195 154.983 47.9323 155.097 48.1015C155.267 48.2707 155.324 48.4399 155.437 48.6654C155.494 48.891 155.551 49.1165 155.551 49.3985C155.551 49.6805 155.551 49.906 155.437 50.1316C155.381 50.3571 155.267 50.5263 155.097 50.6955C154.926 50.8647 154.756 50.9774 154.586 51.0902C154.359 51.203 154.132 51.2594 153.848 51.2594C153.564 51.2594 153.337 51.2594 153.11 51.0902C152.883 50.9774 152.712 50.8647 152.599 50.6955C152.485 50.5263 152.372 50.3571 152.258 50.1316C152.201 49.906 152.145 49.6805 152.145 49.3985C152.145 49.1165 152.145 48.891 152.258 48.6654C152.315 48.4399 152.428 48.2143 152.599 48.1015C152.769 47.9323 152.939 47.8195 153.11 47.7068C153.337 47.594 153.564 47.5376 153.848 47.5376C154.132 47.5376 154.359 47.5376 154.586 47.7068ZM153.337 48.0451C153.167 48.1579 153.053 48.2707 152.939 48.3835C152.826 48.5526 152.769 48.6654 152.712 48.891C152.712 49.0602 152.656 49.2293 152.656 49.4549C152.656 49.6805 152.656 49.8496 152.712 50.0188C152.712 50.188 152.826 50.3571 152.939 50.5263C153.053 50.6391 153.167 50.8083 153.337 50.8647C153.507 50.9774 153.677 50.9774 153.905 50.9774C154.132 50.9774 154.302 50.9774 154.472 50.8647C154.643 50.7519 154.756 50.6391 154.87 50.5263C154.983 50.4135 155.04 50.2444 155.097 50.0188C155.097 49.8496 155.153 49.6805 155.153 49.4549C155.153 49.2293 155.153 49.0602 155.097 48.891C155.097 48.7218 154.983 48.5526 154.87 48.3835C154.756 48.2143 154.643 48.1015 154.472 48.0451C154.302 47.9323 154.132 47.9323 153.905 47.9323C153.677 47.9323 153.507 47.9323 153.337 48.0451Z" fill="#FCFCFC"/>
<path d="M156.63 47.6504V48.2707C156.743 48.0451 156.913 47.8759 157.084 47.7632C157.254 47.6504 157.481 47.594 157.822 47.594C158.162 47.594 158.276 47.6504 158.446 47.7632C158.617 47.8759 158.787 48.0451 158.844 48.2707C158.957 48.0451 159.127 47.8759 159.298 47.7632C159.525 47.6504 159.752 47.594 159.979 47.594C160.774 47.594 161.171 47.9887 161.171 48.8346V51.203H160.717V48.8346C160.717 48.5526 160.66 48.3271 160.547 48.1579C160.433 47.9887 160.206 47.9323 159.865 47.9323C159.525 47.9323 159.525 47.9323 159.411 48.0451C159.298 48.1015 159.184 48.2143 159.127 48.3271C159.071 48.4399 159.014 48.609 158.957 48.7218C158.957 48.891 158.957 49.0602 158.957 49.1729V51.1466H158.503V48.7782C158.503 48.6654 158.503 48.5526 158.503 48.4399C158.503 48.3271 158.446 48.2143 158.389 48.1579C158.333 48.1015 158.276 47.9887 158.162 47.9887C158.049 47.9887 157.935 47.9323 157.822 47.9323C157.708 47.9323 157.481 47.9323 157.368 48.0451C157.254 48.1015 157.14 48.2143 157.027 48.3271C156.97 48.4399 156.857 48.609 156.857 48.7218C156.857 48.891 156.8 49.0602 156.8 49.2293V51.203H156.346V47.6504H156.743H156.63Z" fill="#FCFCFC"/>
<path d="M162.363 47.6504V48.3271C162.477 48.1015 162.647 47.8759 162.874 47.7632C163.101 47.6504 163.385 47.5376 163.669 47.5376C163.953 47.5376 164.18 47.5376 164.35 47.7068C164.577 47.8195 164.691 47.9323 164.861 48.1015C164.975 48.2707 165.088 48.4962 165.145 48.7218C165.202 48.9474 165.259 49.1729 165.259 49.4549C165.259 49.7368 165.259 49.9624 165.145 50.188C165.088 50.4135 164.975 50.6391 164.861 50.8083C164.748 50.9774 164.577 51.0902 164.35 51.203C164.123 51.3158 163.896 51.3722 163.669 51.3722C163.442 51.3722 163.385 51.3722 163.272 51.3722C163.158 51.3722 163.045 51.3158 162.931 51.203C162.817 51.1466 162.704 51.0338 162.647 50.9774C162.59 50.8647 162.477 50.7519 162.477 50.6391V52.6128H162.023V47.7632H162.42L162.363 47.6504ZM164.691 48.891C164.691 48.7218 164.577 48.5526 164.464 48.3835C164.35 48.2143 164.237 48.1015 164.123 48.0451C163.953 47.9323 163.783 47.9323 163.612 47.9323C163.442 47.9323 163.158 47.9323 162.988 48.0451C162.817 48.1015 162.704 48.2143 162.59 48.3835C162.477 48.4962 162.42 48.6654 162.363 48.8346C162.363 49.0038 162.307 49.2293 162.307 49.3985C162.307 49.5677 162.307 49.7368 162.363 49.9624C162.363 50.1316 162.477 50.3008 162.59 50.4699C162.704 50.5827 162.817 50.7519 162.988 50.8083C163.158 50.9211 163.328 50.9211 163.556 50.9211C163.783 50.9211 163.953 50.9211 164.066 50.8083C164.237 50.6955 164.35 50.5827 164.407 50.4699C164.521 50.3008 164.577 50.188 164.634 49.9624C164.634 49.7932 164.691 49.6241 164.691 49.3985C164.691 49.1729 164.691 49.0602 164.634 48.8346" fill="#FCFCFC"/>
<path d="M165.997 48.2143C166.053 48.0451 166.167 47.9323 166.28 47.8196C166.394 47.7068 166.564 47.6504 166.735 47.594C166.905 47.594 167.075 47.5376 167.302 47.5376C167.529 47.5376 167.643 47.5376 167.757 47.5376C167.927 47.5376 168.04 47.6504 168.154 47.7068C168.267 47.7632 168.381 47.8759 168.438 48.0451C168.495 48.2143 168.551 48.3835 168.551 48.609V50.4699C168.551 50.6391 168.665 50.7519 168.778 50.7519C168.892 50.7519 168.892 50.7519 168.892 50.7519V51.0902H168.778C168.778 51.0902 168.665 51.0902 168.608 51.0902C168.495 51.0902 168.438 51.0902 168.324 51.0902C168.267 51.0902 168.211 51.0338 168.154 50.9774C168.154 50.9774 168.097 50.8647 168.097 50.8083C168.097 50.7519 168.097 50.6391 168.097 50.5827C168.04 50.6955 167.927 50.8083 167.87 50.8647C167.813 50.9774 167.7 51.0338 167.586 51.0902C167.473 51.1466 167.359 51.203 167.246 51.203C167.132 51.203 166.962 51.203 166.791 51.203C166.621 51.203 166.451 51.203 166.337 51.1466C166.167 51.1466 166.053 51.0338 165.94 50.9774C165.826 50.9211 165.77 50.8083 165.713 50.6391C165.656 50.5263 165.599 50.3571 165.599 50.188C165.599 50.0188 165.599 49.7368 165.77 49.6241C165.883 49.5113 166.053 49.3985 166.224 49.2857C166.394 49.2293 166.621 49.1729 166.848 49.1165C167.075 49.1165 167.302 49.0602 167.529 49.0038C167.643 49.0038 167.7 49.0038 167.757 49.0038C167.813 49.0038 167.87 49.0038 167.927 48.9474C167.927 48.9474 167.984 48.891 168.04 48.8346C168.04 48.7782 168.04 48.7218 168.04 48.609C168.04 48.4398 168.04 48.3271 167.984 48.2707C167.984 48.1579 167.87 48.1015 167.757 48.0451C167.7 48.0451 167.586 47.9323 167.473 47.9323C167.359 47.9323 167.246 47.9323 167.132 47.9323C166.848 47.9323 166.621 47.9887 166.451 48.1015C166.28 48.2143 166.167 48.4399 166.167 48.7218H165.713C165.713 48.4962 165.77 48.3271 165.826 48.2143M168.154 49.2857C168.154 49.2857 168.097 49.3985 167.984 49.3985C167.927 49.3985 167.813 49.3985 167.757 49.3985C167.586 49.3985 167.359 49.4549 167.189 49.5113C167.018 49.5113 166.791 49.5677 166.678 49.6241C166.508 49.6241 166.394 49.7368 166.28 49.8496C166.167 49.9624 166.11 50.0752 166.11 50.2444C166.11 50.4135 166.11 50.4699 166.167 50.5263C166.167 50.5827 166.28 50.6955 166.337 50.7519C166.394 50.8083 166.508 50.8647 166.564 50.8647C166.678 50.8647 166.735 50.8647 166.848 50.8647C167.018 50.8647 167.189 50.8647 167.302 50.8083C167.473 50.8083 167.586 50.6955 167.7 50.5827C167.813 50.4699 167.927 50.3571 167.984 50.2444C168.04 50.1316 168.097 49.9624 168.097 49.7932V49.2293L168.154 49.2857Z" fill="#FCFCFC"/>
<path d="M169.914 47.6504V48.2707C169.971 48.0451 170.141 47.8759 170.368 47.7632C170.595 47.6504 170.822 47.594 171.049 47.594C171.276 47.594 171.503 47.594 171.674 47.7068C171.844 47.7632 171.958 47.8759 172.071 47.9887C172.185 48.1015 172.241 48.2707 172.298 48.4399C172.298 48.609 172.355 48.7782 172.355 49.0038V51.2594H171.901V49.0602C171.901 48.891 171.901 48.7782 171.901 48.6654C171.901 48.5526 171.844 48.4399 171.73 48.3271C171.674 48.2143 171.56 48.1579 171.447 48.1015C171.333 48.1015 171.163 48.0451 170.992 48.0451C170.822 48.0451 170.652 48.0451 170.538 48.1579C170.425 48.2143 170.311 48.3271 170.198 48.3835C170.084 48.4963 170.027 48.609 169.971 48.7782C169.971 48.9474 169.914 49.0602 169.857 49.2857V51.3158H169.403V47.7632H169.857L169.914 47.6504Z" fill="#FCFCFC"/>
<path d="M173.206 47.6504L174.399 50.6391L175.477 47.6504H175.931L174.399 51.7105C174.342 51.8797 174.285 51.9925 174.228 52.1053C174.228 52.218 174.115 52.2744 174.058 52.3308C174.001 52.3872 173.888 52.4436 173.831 52.4436C173.717 52.4436 173.604 52.4436 173.49 52.4436C173.377 52.4436 173.32 52.4436 173.263 52.4436H173.15V52.1053C173.15 52.1053 173.263 52.1053 173.32 52.1053C173.32 52.1053 173.434 52.1053 173.49 52.1053C173.604 52.1053 173.661 52.1053 173.717 52.1053C173.774 52.1053 173.831 52.0489 173.888 51.9925C173.888 51.9925 173.944 51.8797 174.001 51.8233C174.001 51.7669 174.058 51.6541 174.115 51.5977L174.285 51.203L172.866 47.7068H173.32L173.206 47.6504Z" fill="#FCFCFC"/>
<path d="M110.191 17.3684C111.1 17.3684 111.667 17.1992 112.008 16.9173C112.349 16.5789 112.632 16.0714 112.86 15.3383C113.087 14.6053 113.2 13.985 113.2 13.4774C113.2 12.6316 112.462 12.1805 110.929 12.1805C109.397 12.1805 109.567 12.5752 109.113 13.4211C108.659 14.2669 108.375 15.1692 108.375 16.2406C108.375 17.312 108.942 17.3684 110.135 17.3684H110.191Z" fill="#FCFCFC"/>
<path d="M197.958 34.1729C191.089 34.1165 184.333 33.1579 183.312 32.1429C183.312 30.3383 182.29 29.5489 181.665 29.2105C178.259 27.406 170.652 31.9173 168.438 33.3271C166.678 34.4549 165.259 35.4135 163.896 36.0902C162.023 36.9925 160.206 37.5 158.333 37.5C156.459 37.5 156.459 37.0489 156.005 36.0902C155.664 35.4699 155.494 34.6241 155.494 33.609V33.4398L156.459 33.0451C159.014 32.0301 160.831 31.0714 161.966 30.2819C164.123 28.7594 165.145 26.9549 165.145 24.8684C165.145 22.7819 163.896 21.4286 161.455 21.4286C159.014 21.4286 156.573 22.7256 154.586 25.2632C152.769 27.6316 151.804 30.2819 151.634 33.3271C148.057 35.5263 147.149 36.9925 145.9 36.9925C144.651 36.9925 145.162 36.7105 145.162 36.203C145.162 35.6955 145.673 34.3421 146.638 31.5226C147.092 30.2819 147.262 29.2105 147.262 28.3647C147.262 26.5601 146.581 25.2632 145.275 24.4737C144.708 24.1353 143.686 23.6842 142.096 23.1767C142.55 21.9361 142.778 21.0338 142.778 20.3571C142.778 19.6804 142.607 19.2857 142.323 19.0601C142.04 18.891 141.245 18.7782 139.996 18.7782C138.747 18.7782 138.747 19.0601 138.577 19.5677C138.349 20.0752 138.293 20.8083 138.293 21.7669C138.293 22.7256 138.52 22.9511 138.917 23.797C138.236 25.2068 137.214 26.7293 135.852 28.2519C135.17 28.985 134.035 30.1692 132.445 31.6917C131.991 32.0865 131.651 32.4812 131.31 32.7632C130.969 33.0451 130.572 33.2143 130.118 33.2143C129.38 33.2143 128.755 32.4812 128.244 31.015C128.755 29.718 129.153 28.703 129.38 28.0263C129.834 26.7293 130.004 25.7143 130.004 24.9812C130.004 23.9098 129.493 23.3459 128.471 23.3459C127.45 23.3459 126.825 23.9662 126.314 25.2632C125.803 26.5601 125.576 28.3647 125.576 30.7895C124.838 32.4812 123.816 34.0038 122.511 35.3571C121.205 36.7105 120.183 37.3872 119.388 37.3872C118.593 37.3872 118.31 36.485 118.31 34.7368V31.7481C121.829 27.5188 124.384 23.9098 126.03 20.8647C127.677 17.8759 128.471 15.282 128.471 13.0827C128.471 10.8835 128.188 10.9962 127.62 10.2632C127.052 9.47368 126.314 9.07894 125.519 9.07894C123.305 9.07894 121.318 10.8271 119.502 14.3797C118.082 17.0865 116.89 20.7519 115.868 25.2632C115.244 28.0263 114.903 30.3383 114.733 32.1992C114.052 32.8195 113.314 33.4398 112.632 34.0601C110.475 35.8647 108.999 36.7669 108.261 36.7669C107.523 36.7669 107.41 36.0338 107.41 34.5677C107.41 33.1015 107.58 31.8609 107.977 30.1692C108.375 28.4774 109.056 26.2218 109.964 23.4022L110.418 22.0489H106.558C105.65 24.3609 104.912 26.5601 104.401 28.703C104.117 29.9436 103.89 31.0714 103.776 32.1429C101.562 34.1729 99.7456 35.2444 98.3263 35.2444C98.0992 33.609 97.7586 32.2556 97.2477 31.2406C96.7368 30.2256 95.9987 29.3233 95.0904 28.5338C96.9071 26.7293 98.2696 25.2068 99.2347 24.0789C100.711 22.2744 101.789 20.5827 102.527 19.0038C103.436 17.0865 103.833 15.1128 103.833 13.1955C103.833 11.2782 103.549 10.8271 102.982 10.0376C102.414 9.24811 101.619 8.85338 100.711 8.85338C99.1779 8.85338 97.7019 9.92481 96.2826 12.0113C95.1472 13.7594 94.0118 16.1278 92.9331 19.2293C92.3654 20.921 91.5707 23.515 90.6056 27.0113C89.0728 27.0113 87.8238 29.0413 87.8238 31.7481C87.8238 31.8045 87.8238 31.8045 87.8238 31.8045C87.8238 31.6917 87.8238 31.6917 87.8238 31.6917C87.54 32.3684 84.9853 34.2293 76.7536 34.2293H8.8562V36.9925H76.7536C83.6796 36.9925 87.1426 35.8083 88.8457 34.5677C88.6186 36.0902 88.3915 37.4436 88.278 38.515C88.1644 39.6992 88.0509 40.7143 88.0509 41.6165C88.0509 43.985 88.3915 45.8459 89.016 47.2556C89.6972 48.6654 90.6056 49.3421 91.8545 49.3421C94.2389 49.3421 95.9988 47.9887 97.1342 45.2256C97.9857 43.2519 98.3831 40.8835 98.3831 38.1203C99.7456 37.9511 100.824 37.7256 101.619 37.3872C102.243 37.1053 102.925 36.6541 103.72 36.0902C103.72 36.9361 103.833 37.6692 103.947 38.1203C104.287 39.6992 105.082 40.4887 106.217 40.4887C107.353 40.4887 109.226 39.9248 111.156 38.7406C112.519 37.9511 113.711 37.0489 114.79 36.0902C114.903 37.218 115.13 38.1203 115.414 38.8534C115.925 39.9248 116.777 40.4887 117.969 40.4887C119.161 40.4887 121.318 39.8684 122.908 38.6842C124.497 37.5 125.803 35.9774 126.825 34.1729C127.563 35.6955 128.642 36.485 130.004 36.485C131.367 36.485 131.31 36.203 132.218 35.6955C132.218 35.6955 132.275 35.6955 132.332 35.6391C132.332 35.6391 132.389 35.6391 132.445 35.5827C134.035 34.1165 135.227 32.9887 136.022 32.2556C138.52 29.8872 140.223 27.688 141.188 25.6579C142.778 26.2782 143.572 27.2932 143.572 28.6466C143.572 30 143.175 30.6203 142.38 32.5376C141.585 34.3985 141.188 35.8647 141.188 36.9361C141.188 38.0075 141.472 38.8534 141.983 39.5301C142.494 40.2068 143.175 40.5451 144.026 40.5451C145.9 40.5451 149.193 38.1767 151.918 36.4286C152.145 37.218 152.429 37.9511 152.883 38.6278C153.734 39.9248 154.926 40.6015 156.573 40.6015C161.001 40.6015 165.542 38.9098 170.198 35.5827C174.115 33.1579 178.997 31.015 180.303 31.7481C180.416 31.8045 180.473 32.0301 180.473 32.4248C180.473 35.3571 186.32 36.9361 197.902 37.0489H261.825V34.2857H197.902L197.958 34.1729ZM158.106 26.109C159.127 24.8684 160.149 24.2481 161.171 24.2481C162.193 24.2481 162.25 24.5865 162.25 25.2632C162.25 25.9398 161.682 27.0677 160.547 28.0263C159.411 28.9286 157.935 29.7744 156.005 30.4511C156.346 28.7594 157.084 27.3496 158.106 26.109ZM122.056 16.4662C123.135 13.5902 124.157 12.1804 125.008 12.1804C125.86 12.1804 125.803 12.6316 125.803 13.5902C125.803 15.1128 125.122 17.1992 123.816 19.7932C122.567 22.1616 121.034 24.5301 119.218 26.9549C119.899 23.2331 120.864 19.7368 122.113 16.4098L122.056 16.4662ZM97.0206 17.9323C98.3263 14.0977 99.4617 12.1804 100.427 12.1804C101.392 12.1804 100.938 12.3496 101.051 12.688C101.222 13.0263 101.278 13.4774 101.278 13.985C101.278 15.7331 100.597 17.7068 99.2914 19.7932C98.2128 21.5413 96.7935 23.2895 94.9201 25.094C95.7717 21.8233 96.4529 19.4549 96.9071 17.9323H97.0206ZM94.5227 45C94.0686 45.9023 93.4441 46.297 92.7628 46.297C92.0816 46.297 91.9681 45.9023 91.741 45.0564C91.4571 44.2105 91.3436 43.1955 91.3436 42.0113C91.3436 40.8271 91.3436 40.6015 91.4571 39.6429C91.5707 38.6842 91.6842 37.6128 91.9113 36.4286C92.4222 36.8797 92.8764 37.218 93.4441 37.4436C93.955 37.6692 94.693 37.8383 95.6014 38.0075C95.6014 41.2782 95.2607 43.5902 94.5227 44.9436V45ZM93.8982 34.6241C93.3305 34.3421 92.8764 34.0601 92.5358 33.7782L93.3873 30.3383C94.1821 31.4098 94.7498 32.312 95.0904 33.0451C95.431 33.7782 95.6014 34.5113 95.6014 35.188C95.0336 35.0752 94.4659 34.906 93.8982 34.6241Z" fill="#FCFCFC"/>
</svg>
