<svg width="80" height="80" viewBox="0 0 80 80" fill="none" xmlns="http://www.w3.org/2000/svg">
<path d="M40 6.66675C58.41 6.66675 73.3334 21.5901 73.3334 40.0001C73.3334 58.4101 58.41 73.3334 40 73.3334C21.59 73.3334 6.66669 58.4101 6.66669 40.0001C6.66669 21.5901 21.59 6.66675 40 6.66675ZM40 13.3334C32.9276 13.3334 26.1448 16.1429 21.1438 21.1439C16.1429 26.1449 13.3334 32.9276 13.3334 40.0001C13.3334 47.0725 16.1429 53.8553 21.1438 58.8563C26.1448 63.8572 32.9276 66.6667 40 66.6667C47.0725 66.6667 53.8552 63.8572 58.8562 58.8563C63.8572 53.8553 66.6667 47.0725 66.6667 40.0001C66.6667 32.9276 63.8572 26.1449 58.8562 21.1439C53.8552 16.1429 47.0725 13.3334 40 13.3334ZM39.9667 33.3334C41.8267 33.3334 43.3334 34.8401 43.3334 36.7001V53.7801C43.9688 54.147 44.4654 54.7133 44.7462 55.3912C45.027 56.0691 45.0762 56.8207 44.8863 57.5295C44.6964 58.2382 44.2779 58.8645 43.6958 59.3112C43.1137 59.7579 42.4004 60 41.6667 60.0001H40.0334C39.5912 60.0001 39.1534 59.913 38.745 59.7438C38.3365 59.5746 37.9654 59.3266 37.6528 59.014C37.3401 58.7014 37.0921 58.3302 36.923 57.9218C36.7538 57.5133 36.6667 57.0755 36.6667 56.6334V40.0001C35.7826 40.0001 34.9348 39.6489 34.3097 39.0238C33.6845 38.3986 33.3334 37.5508 33.3334 36.6667C33.3334 35.7827 33.6845 34.9348 34.3097 34.3097C34.9348 33.6846 35.7826 33.3334 36.6667 33.3334H39.9667ZM40 23.3334C40.8841 23.3334 41.7319 23.6846 42.357 24.3097C42.9822 24.9348 43.3334 25.7827 43.3334 26.6667C43.3334 27.5508 42.9822 28.3986 42.357 29.0238C41.7319 29.6489 40.8841 30.0001 40 30.0001C39.116 30.0001 38.2681 29.6489 37.643 29.0238C37.0179 28.3986 36.6667 27.5508 36.6667 26.6667C36.6667 25.7827 37.0179 24.9348 37.643 24.3097C38.2681 23.6846 39.116 23.3334 40 23.3334Z" fill="black"/>
</svg>
