<svg width="219" height="219" viewBox="0 0 219 219" fill="none" xmlns="http://www.w3.org/2000/svg">
<path opacity="0.3" d="M49.7523 194.663C51.0726 194.662 52.5037 194.772 53.9226 195.027L54.5312 195.145L54.5517 195.149L54.5722 195.155C55.1459 195.302 55.5931 195.427 56.0483 195.512L56.0913 195.519L56.1323 195.531C60.0719 196.618 63.4304 198.627 65.6796 201.085C67.9211 203.535 69.1328 206.527 68.5089 209.505C67.8586 212.713 65.3461 215.09 62.0413 216.417C58.7298 217.747 54.5153 218.08 50.1575 217.165L50.1575 217.164C45.7997 216.272 42.0286 214.271 39.4746 211.724C36.931 209.187 35.502 205.999 36.1544 202.808L36.2069 202.564C36.7863 200.065 38.5256 198.089 40.8712 196.753C43.2862 195.377 46.391 194.645 49.7454 194.663L49.7523 194.663ZM12.3718 183.704C14.6161 183.652 17.0357 183.991 19.4688 184.762L19.8323 184.871C20.1925 184.982 20.5816 185.113 21.0066 185.298L21.7795 185.608C25.5998 187.213 28.7243 189.638 30.7141 192.372C32.8279 195.275 33.728 198.642 32.5856 201.715C31.4842 204.778 28.6287 206.718 25.1635 207.498C21.6883 208.28 17.4705 207.94 13.327 206.345L13.325 206.345C9.15869 204.727 5.76519 202.137 3.64679 199.206C1.5354 196.284 0.623623 192.911 1.70199 189.842L1.70783 189.824C3.16225 185.918 7.47943 183.856 12.3639 183.704L12.3718 183.704ZM78.5724 90.9343C78.6961 90.9376 78.9126 90.9591 79.1409 91.0606C79.1465 91.0622 79.1535 91.0647 79.1624 91.0674C79.1859 91.0742 79.2613 91.0956 79.3442 91.1326C79.394 91.1548 79.4585 91.1884 79.5289 91.2368C84.4921 93.9832 87.6202 100.182 89.5007 107.844C91.4045 115.601 92.0962 125.128 91.9694 134.845C91.8425 144.57 90.8953 154.532 89.4965 163.181C88.1007 171.81 86.2441 179.201 84.2742 183.749L84.2693 183.762L84.2635 183.775C82.2474 188.091 77.8171 191.048 72.9036 192.367C67.9805 193.688 62.3887 193.419 57.8794 191.076C53.3181 188.705 49.9498 184.251 49.5199 177.443C49.0941 170.698 51.5511 161.708 58.3896 150.13L58.3906 150.129C60.353 146.82 62.1946 141.545 63.9427 135.397C65.6843 129.272 67.3055 122.384 68.8539 115.893C70.3978 109.422 71.8736 103.327 73.3161 98.8533C74.0354 96.6224 74.7646 94.7378 75.5141 93.3954C75.8877 92.7261 76.2942 92.1403 76.7463 91.7111C77.195 91.2852 77.7773 90.9322 78.4787 90.9345L78.5724 90.9343ZM52.3655 83.5055C52.6858 83.5051 53.043 83.5048 53.4114 83.5501L54.6341 83.5485L54.6347 84.0241C54.9548 84.2898 55.1827 84.6401 55.3362 85.0153C55.5732 85.5949 55.6617 86.2923 55.6699 87.0286C55.6862 88.5085 55.3782 90.4629 54.8726 92.7122C53.857 97.2299 51.974 103.23 49.9297 109.629C47.8788 116.049 45.6583 122.89 43.9385 129.151C42.2125 135.435 41.0212 141.031 40.9825 144.982L40.9825 144.985C40.8176 158.512 38.2693 167.466 34.4232 172.951C30.5363 178.494 25.3598 180.434 20.2507 179.952C15.2055 179.475 10.3158 176.651 6.81173 172.849C3.31422 169.054 1.06659 164.139 1.55592 159.379L1.55785 159.36L1.56075 159.341C2.92978 149.709 10.2868 130.9 19.8481 114.502C24.6368 106.29 30.0128 98.6206 35.5213 92.9747C40.9911 87.3686 46.767 83.5758 52.3547 83.5056L52.3655 83.5055ZM166.308 111.157C168.341 111.2 170.587 111.499 172.816 112.177L173.261 112.318L173.281 112.324L173.3 112.331L174.795 112.889L174.805 112.892L174.814 112.896C178.612 114.396 181.745 116.748 183.733 119.429C185.713 122.101 186.62 125.203 185.707 128.1L185.708 128.101C184.742 131.231 182.001 133.331 178.579 134.298C175.152 135.268 170.928 135.146 166.69 133.772C162.447 132.419 158.906 130.025 156.629 127.218C154.364 124.423 153.271 121.1 154.235 117.992C155.599 113.49 160.672 111.165 166.285 111.157L166.308 111.157ZM131.201 96.4167C133.786 96.4149 136.63 97.0011 139.458 98.2536C139.899 98.4346 140.394 98.6374 140.938 98.9392L140.939 98.9392C144.919 100.969 148.046 103.89 149.858 107.02C151.662 110.137 152.22 113.586 150.789 116.525L150.79 116.526C149.396 119.461 146.355 121.083 142.829 121.485C139.293 121.887 135.129 121.093 131.171 119.062L131.168 119.061C127.189 117.008 124.076 114.076 122.264 110.941C120.46 107.817 119.892 104.371 121.275 101.433L121.278 101.426L121.281 101.418C122.911 98.1046 126.628 96.4762 130.797 96.4172L131.201 96.4167ZM205.747 11.8431C206.236 11.4697 206.849 11.1838 207.542 11.2607C207.545 11.2609 207.548 11.2613 207.551 11.2616C207.554 11.262 207.557 11.2622 207.561 11.2626L207.56 11.2626C207.639 11.2701 207.842 11.29 208.066 11.383L208.17 11.4307L208.35 11.5282C208.392 11.5529 208.474 11.6026 208.562 11.6763C213.223 14.9317 215.711 21.4307 216.81 29.2574C217.921 37.1721 217.651 46.7162 216.548 56.3623C215.444 66.0169 213.501 75.8197 211.243 84.2676C208.989 92.6964 206.404 99.8447 203.992 104.155L203.984 104.169L203.976 104.181C201.527 108.26 196.817 110.727 191.795 111.514C186.762 112.302 181.228 111.436 176.98 108.627C172.685 105.785 169.783 101 170.04 94.1855C170.294 87.4336 173.641 78.7577 181.604 67.9761L181.605 67.9751C183.896 64.8794 186.262 59.8216 188.621 53.8908C190.971 47.9822 193.278 41.3056 195.47 35.0195C197.656 28.7521 199.735 22.8555 201.618 18.5672C202.557 16.429 203.471 14.635 204.351 13.383C204.789 12.759 205.253 12.2206 205.747 11.8431ZM181.291 1.04772C181.959 1.05203 182.667 1.11804 183.335 1.23549C183.448 1.24295 183.542 1.26091 183.61 1.27712L184.5 1.27597L184.501 1.80722C184.82 2.11152 185.028 2.50067 185.148 2.91087C185.325 3.51055 185.343 4.21209 185.276 4.94391C185.142 6.4146 184.638 8.32256 183.908 10.5033C182.443 14.8832 179.967 20.6463 177.289 26.7883C174.602 32.9503 171.704 39.5138 169.36 45.5525C167.155 51.2346 165.477 56.3645 164.91 60.2117L164.812 60.9637C163.289 74.4093 159.858 83.0509 155.485 88.1019C151.064 93.2079 145.723 94.5866 140.695 93.5615C135.731 92.5495 131.159 89.2179 128.061 85.0623C124.969 80.9147 123.231 75.7851 124.196 71.1015L124.2 71.082L124.205 71.0625C126.504 61.8073 135.459 44.3141 146.375 29.1967C151.843 21.6246 157.841 14.5947 163.796 9.46111C169.71 4.36221 175.75 0.988746 181.285 1.04773L181.286 1.04675C181.287 1.04676 181.29 1.04673 181.292 1.04674L181.291 1.04772Z" stroke="white" stroke-width="2"/>
</svg>
