<svg width="173" height="173" viewBox="0 0 173 173" fill="none" xmlns="http://www.w3.org/2000/svg">
<g opacity="0.8">
<path d="M45.5948 44.115L68.3723 48.4318M80.4558 50.7218L104.623 55.302M116.706 57.592L139.484 61.9088M21.7188 145.989L57.9694 152.859C58.7286 148.854 61.048 145.313 64.4175 143.017C67.787 140.722 71.9304 139.858 75.9364 140.618C79.9423 141.377 83.4826 143.696 85.7784 147.066C88.0742 150.435 88.9374 154.579 88.1782 158.585L124.429 165.455L125.001 162.434L125.86 143.57C127.35 110.807 133.488 78.4214 144.089 47.385L150.192 29.5149L150.765 26.4941L114.514 19.6239C113.755 23.6298 111.435 27.1701 108.066 29.4659C104.696 31.7617 100.553 32.6249 96.547 31.8657C92.541 31.1065 89.0008 28.787 86.705 25.4176C84.4092 22.0481 83.5459 17.9046 84.3051 13.8987L48.0545 7.02851L47.482 10.0494L46.6232 28.9133C45.1335 61.6766 38.9959 94.0619 28.3943 125.098L22.2913 142.968L21.7188 145.989Z" stroke="#F299E3"/>
</g>
</svg>
